<?xml version="1.0" standalone="no"?>
<!DOCTYPE svg PUBLIC "-//W3C//DTD SVG 20010904//EN"
 "http://www.w3.org/TR/2001/REC-SVG-20010904/DTD/svg10.dtd">
<svg version="1.0" xmlns="http://www.w3.org/2000/svg"
 width="700.000000pt" height="700.000000pt" viewBox="0 0 700.000000 700.000000"
 preserveAspectRatio="xMidYMid meet">
<metadata>
Created by potrace 1.14, written by Peter Selinger 2001-2017
</metadata>
<g transform="translate(0.000000,700.000000) scale(0.100000,-0.100000)"
fill="#000000" stroke="none">
<path d="M1845 6382 c-16 -2 -37 -11 -46 -20 -14 -15 -66 -64 -279 -262 -19
-18 -89 -83 -155 -145 -66 -62 -136 -127 -155 -145 -19 -18 -89 -83 -155 -145
-66 -62 -133 -125 -150 -141 -16 -15 -86 -80 -155 -144 -69 -65 -141 -132
-160 -150 -19 -18 -91 -85 -160 -150 -69 -64 -151 -141 -182 -170 -32 -29 -58
-55 -58 -59 0 -3 521 -5 1158 -3 l1159 2 30 28 c17 15 86 79 153 142 67 63
134 126 149 139 22 20 215 201 311 291 80 75 289 271 315 294 17 16 84 79 150
141 66 62 136 127 155 145 19 18 91 85 160 150 69 64 144 134 168 155 23 21
42 41 42 44 0 6 -2242 9 -2295 3z"/>
<path d="M4469 6358 c-17 -15 -87 -80 -156 -145 -69 -65 -141 -131 -158 -148
-18 -16 -84 -78 -146 -136 -168 -158 -180 -168 -255 -238 -38 -35 -125 -117
-194 -182 -69 -64 -143 -134 -165 -154 -46 -43 -263 -245 -310 -290 -18 -16
-77 -72 -132 -123 l-101 -94 1 -1448 c0 -796 2 -1452 6 -1457 6 -9 232 -194
296 -243 19 -14 78 -61 132 -105 54 -45 148 -121 208 -169 61 -49 128 -104
150 -122 136 -111 472 -383 500 -404 18 -14 99 -79 181 -146 82 -66 154 -123
159 -126 7 -4 11 699 13 2100 2 1158 5 2109 8 2114 4 5 31 9 63 8 31 -1 180
-1 332 -1 248 1 278 3 296 19 17 15 170 157 307 286 22 21 92 86 155 145 62
58 128 120 145 136 61 56 271 253 306 285 30 28 194 181 301 281 19 19 85 80
145 136 228 212 259 243 244 244 -8 0 -529 1 -1157 2 l-1143 2 -31 -27z"/>
</g>
</svg>
